
<svg version="1.1" xmlns="http://www.w3.org/2000/svg" width="1em" height="1em" viewBox="0 0 1024 1024">
<path fill="#38d969" d="M335.36-0.284c-0.88 0.16-1.76 0.4-2.56 0.64-6.72 1.52-12.24 6.24-14.72 12.72s-1.52 13.68 2.56 19.28l43.52 65.28c-73.68 38.72-126.56 105.52-138.88 184.96 0 0.24 0 0.4 0 0.64s0 0.4 0 0.64c0 0.64 0 1.28 0 1.92 0 0.4 0 0.88 0 1.28-0.080 1.040-0.080 2.16 0 3.2v28.8c-12.16-7.12-25.92-11.52-40.96-11.52-45.040 0-81.92 36.88-81.92 81.92v245.76c0 45.040 36.88 81.92 81.92 81.92 15.040 0 28.8-4.4 40.96-11.52v52.48c0 33.68 27.76 61.44 61.44 61.44h20.48v122.88c0 45.040 36.88 81.92 81.92 81.92s81.92-36.88 81.92-81.92v-122.88h81.92v122.88c0 45.040 36.88 81.92 81.92 81.92s81.92-36.88 81.92-81.92v-122.88h20.48c33.68 0 61.44-27.76 61.44-61.44v-52.48c12.16 7.12 25.92 11.52 40.96 11.52 45.040 0 81.92-36.88 81.92-81.92v-245.76c0-45.040-36.88-81.92-81.92-81.92-15.040 0-28.8 4.4-40.96 11.52v-28.16c0.24-1.92 0.24-3.84 0-5.76 0-0.24 0-0.4 0-0.64s0-0.4 0-0.64c-11.92-80-64.8-147.36-138.88-186.24l43.52-65.28c5.040-6.88 5.2-16.16 0.48-23.28-4.64-7.12-13.28-10.64-21.6-8.72-5.28 1.2-9.92 4.4-12.8 8.96l-48 71.040c-33.76-12.16-70.88-18.56-109.44-18.56s-75.68 6.4-109.44 18.56l-48-71.040c-4.080-6.56-11.52-10.24-19.2-9.6zM512 102.756c38.48 0 74.56 7.52 106.24 21.12 0.64 0.24 1.28 0.48 1.92 0.64 64.080 28.080 110.72 80.64 128.64 142.080h-473.6c17.68-60.56 63.36-112.48 126.080-140.8 1.36-0.48 2.64-1.12 3.84-1.92 31.84-13.76 68.16-21.12 106.88-21.12zM399.36 164.196c-17.040 0-30.72 13.76-30.72 30.72 0 17.040 13.68 30.72 30.72 30.72 16.96 0 30.72-13.68 30.72-30.72 0-16.96-13.76-30.72-30.72-30.72zM624.64 164.196c-16.96 0-30.72 13.76-30.72 30.72 0 17.040 13.76 30.72 30.72 30.72 17.040 0 30.72-13.68 30.72-30.72 0-16.96-13.68-30.72-30.72-30.72zM266.24 307.556h491.52v450.56c0 11.52-8.96 20.48-20.48 20.48h-160c-2.72-0.56-5.6-0.56-8.32 0h-237.44c-2.72-0.56-5.6-0.56-8.32 0h-36.48c-11.52 0-20.48-8.96-20.48-20.48zM184.32 348.516c22.88 0 40.96 18.080 40.96 40.96v245.76c0 22.88-18.080 40.96-40.96 40.96s-40.96-18.080-40.96-40.96v-245.76c0-22.88 18.080-40.96 40.96-40.96zM839.68 348.516c22.88 0 40.96 18.080 40.96 40.96v245.76c0 22.88-18.080 40.96-40.96 40.96s-40.96-18.080-40.96-40.96v-245.76c0-22.88 18.080-40.96 40.96-40.96zM348.16 819.556h81.92v122.88c0 22.88-18.080 40.96-40.96 40.96s-40.96-18.080-40.96-40.96zM593.92 819.556h81.92v122.88c0 22.88-18.080 40.96-40.96 40.96s-40.96-18.080-40.96-40.96z"></path>
</svg>
